# xmcd CD database file
#
# Track frame offsets:
#	150
#	15760
#	32360
#	56240
#
# Disc length: 957 seconds
#
# Revision: 0
# Processed by: cddbd v1.5PL3 Copyright (c) Steve Scherf et al.
# Submitted via: CDex 1.40Release
#
DISCID=2103bb04
DTITLE=Our Love to Stay  - 春
DYEAR=1900
DGENRE=Techno
TTITLE0=春
TTITLE1=if
TTITLE2=優しいメロディ
TTITLE3=春（Singing Piano Mix）
EXTD=
EXTT0=
EXTT1=
EXTT2=
EXTT3=
PLAYORDER=
